<svg width="87" height="87" viewBox="0 0 87 87" fill="none" xmlns="http://www.w3.org/2000/svg">
<path d="M5.05742 24.8921C2.26453 24.8921 0.000449181 22.628 0.000449181 19.8352C0.000449181 17.0423 2.26453 14.7782 5.05742 14.7782C7.8503 14.7782 10.1144 17.0423 10.1144 19.8352C10.1144 22.628 7.8503 24.8921 5.05742 24.8921Z" fill="#61CD90"/>
<path d="M5.66383 27.6393C6.47393 27.1612 7.45957 27.0867 8.33253 27.4356C12.9019 29.2643 17.7269 32.9251 22.2508 37.862C23.2932 28.1287 28.4486 18.6874 36.6033 12.1004C43.6511 6.40803 52.316 3.27295 61.0022 3.27295C64.7146 3.27295 68.3304 3.84032 71.749 4.9599C72.8854 5.3318 73.6973 6.33738 73.8221 7.52675C74.4185 13.2092 73.5152 19.0039 71.3376 24.4002C77.2233 26.6307 82.4372 30.2538 86.3109 34.9727C87.0698 35.8972 87.215 37.1811 86.681 38.2513C81.2604 49.1233 69.8531 56.7852 56.9092 58.2468C55.3822 58.4193 53.8335 58.5069 52.3078 58.5069C52.3069 58.5069 52.3065 58.5069 52.3056 58.5069C45.4468 58.5069 38.7892 56.7111 33.1059 53.4768C38.3588 63.4693 40.9035 73.5759 39.9664 81.0692C39.8494 82.002 39.3071 82.8286 38.4966 83.3062C38.0237 83.5854 37.491 83.7271 36.9553 83.7271C36.5739 83.7271 36.1911 83.6552 35.8279 83.51C28.0212 80.3857 19.4663 71.9189 12.9439 60.8613C6.42191 49.8038 3.15115 38.2205 4.19358 29.8763C4.31148 28.9431 4.85416 28.117 5.66383 27.6393ZM35.052 43.1431C42.3555 43.1427 49.666 40.4861 55.6371 35.6632C58.2915 33.5189 60.5683 31.0228 62.4174 28.3016C60.782 28.0554 59.1154 27.9271 57.4324 27.9271C56.1333 27.9271 54.814 28.0017 53.511 28.149C43.4851 29.2812 34.5861 34.7603 29.7025 42.6529C31.4423 42.9779 33.2299 43.1431 35.0494 43.1431C35.0507 43.1431 35.0512 43.1431 35.052 43.1431ZM67.9225 10.1703C65.6946 9.6194 63.3753 9.3407 61.0022 9.3407C53.6987 9.3407 46.3883 11.9968 40.4168 16.8206C34.9497 21.2369 31.0756 27.1387 29.2682 33.4509C35.3099 27.2822 43.6853 23.1515 52.831 22.1186C54.3588 21.9461 55.9075 21.8585 57.4328 21.8585C60.1652 21.8585 62.8647 22.1459 65.4849 22.6924C67.1909 18.6844 68.0504 14.4098 67.9225 10.1703ZM52.3078 52.4387C53.6073 52.4387 54.9266 52.3641 56.2291 52.2172C66.4241 51.066 75.4566 45.4221 80.2839 37.3137C77.1215 34.0018 73.0952 31.4545 68.6152 29.8546C66.2503 33.7938 63.1625 37.3852 59.45 40.3838C53.1465 45.4754 45.5478 48.5134 37.7975 49.0994C42.1848 51.2523 47.1711 52.4387 52.3078 52.4387ZM18.1717 57.7787C22.7735 65.5806 28.5508 72.0541 34.0001 75.6807C33.4622 69.1578 30.5919 60.9692 25.9905 53.1673C21.3891 45.3658 15.6117 38.8919 10.1625 35.2653C10.7 41.7886 13.5702 49.9772 18.1717 57.7787Z" fill="#61CD90"/>
</svg>
