<svg width="87" height="87" viewBox="0 0 87 87" fill="none" xmlns="http://www.w3.org/2000/svg">
<path d="M81.9426 24.8921C84.7355 24.8921 86.9996 22.628 86.9996 19.8352C86.9996 17.0423 84.7355 14.7782 81.9426 14.7782C79.1497 14.7782 76.8857 17.0423 76.8857 19.8352C76.8857 22.628 79.1497 24.8921 81.9426 24.8921Z" fill="#FFB8C6"/>
<path d="M81.3362 27.6393C80.5261 27.1612 79.5405 27.0867 78.6675 27.4356C74.0982 29.2643 69.2731 32.9251 64.7493 37.862C63.7068 28.1287 58.5515 18.6874 50.3967 12.1004C43.349 6.40803 34.684 3.27295 25.9978 3.27295C22.2854 3.27295 18.6696 3.84032 15.2511 4.9599C14.1146 5.3318 13.3028 6.33738 13.1779 7.52675C12.5815 13.2092 13.4848 19.0039 15.6624 24.4002C9.77672 26.6307 4.56285 30.2538 0.689178 34.9727C-0.0697786 35.8972 -0.214982 37.1811 0.319019 38.2513C5.73964 49.1233 17.147 56.7852 30.0908 58.2468C31.6178 58.4193 33.1665 58.5069 34.6923 58.5069C34.6931 58.5069 34.6936 58.5069 34.6944 58.5069C41.5532 58.5069 48.2109 56.7111 53.8942 53.4768C48.6413 63.4693 46.0965 73.5759 47.0336 81.0692C47.1507 82.002 47.6929 82.8286 48.5034 83.3062C48.9763 83.5854 49.509 83.7271 50.0448 83.7271C50.4262 83.7271 50.8089 83.6552 51.1721 83.51C58.9789 80.3857 67.5337 71.9189 74.0561 60.8613C80.5781 49.8038 83.8489 38.2205 82.8065 29.8763C82.6886 28.9431 82.1459 28.117 81.3362 27.6393ZM51.948 43.1431C44.6445 43.1427 37.3341 40.4861 31.363 35.6632C28.7086 33.5189 26.4317 31.0228 24.5827 28.3016C26.218 28.0554 27.8846 27.9271 29.5677 27.9271C30.8667 27.9271 32.1861 28.0017 33.489 28.149C43.515 29.2812 52.414 34.7603 57.2975 42.6529C55.5577 42.9779 53.7702 43.1431 51.9506 43.1431C51.9493 43.1431 51.9489 43.1431 51.948 43.1431ZM19.0775 10.1703C21.3054 9.6194 23.6248 9.3407 25.9978 9.3407C33.3013 9.3407 40.6118 11.9968 46.5833 16.8206C52.0503 21.2369 55.9244 27.1387 57.7319 33.4509C51.6901 27.2822 43.3147 23.1515 34.1691 22.1186C32.6412 21.9461 31.0925 21.8585 29.5672 21.8585C26.8348 21.8585 24.1353 22.1459 21.5152 22.6924C19.8092 18.6844 18.9496 14.4098 19.0775 10.1703ZM34.6923 52.4387C33.3928 52.4387 32.0734 52.3641 30.7709 52.2172C20.5759 51.066 11.5434 45.4221 6.71619 37.3137C9.87858 34.0018 13.9048 31.4545 18.3849 29.8546C20.7497 33.7938 23.8376 37.3852 27.55 40.3838C33.8535 45.4754 41.4522 48.5134 49.2026 49.0994C44.8153 51.2523 39.829 52.4387 34.6923 52.4387ZM68.8284 57.7787C64.2265 65.5806 58.4492 72.0541 53 75.6807C53.5379 69.1578 56.4081 60.9692 61.0095 53.1673C65.611 45.3658 71.3883 38.8919 76.8375 35.2653C76.3001 41.7886 73.4298 49.9772 68.8284 57.7787Z" fill="#FFB8C6"/>
</svg>
