<svg width="788" height="703" viewBox="0 0 788 703" fill="none" xmlns="http://www.w3.org/2000/svg">
<path d="M332 513.5C603.2 508.3 584 286.667 540.5 176.5C516.833 112.5 542.8 -3.19994 836 46.0001C1202.5 107.5 1012.5 577.886 694 584.5C-21.0001 559.5 93.4999 765.5 54.4999 683C15.4999 600.5 -7.00012 520 332 513.5Z" fill="#79F4AF"/>
<path d="M687.057 21.8922C684.264 21.8922 682 19.6281 682 16.8352C682 14.0423 684.264 11.7782 687.057 11.7782C689.85 11.7782 692.114 14.0423 692.114 16.8352C692.114 19.6281 689.85 21.8922 687.057 21.8922Z" fill="#61CD90"/>
<path d="M687.664 24.6393C688.474 24.1612 689.459 24.0867 690.332 24.4356C694.902 26.2643 699.727 29.9251 704.251 34.862C705.293 25.1287 710.448 15.6874 718.603 9.10042C725.651 3.40803 734.316 0.272949 743.002 0.272949C746.715 0.272949 750.33 0.840324 753.749 1.9599C754.885 2.3318 755.697 3.33738 755.822 4.52675C756.418 10.2092 755.515 16.0039 753.338 21.4002C759.223 23.6307 764.437 27.2538 768.311 31.9727C769.07 32.8972 769.215 34.1811 768.681 35.2513C763.26 46.1233 751.853 53.7852 738.909 55.2468C737.382 55.4193 735.833 55.5069 734.308 55.5069H734.306C727.447 55.5069 720.789 53.7111 715.106 50.4768C720.359 60.4693 722.903 70.5759 721.966 78.0692C721.849 79.002 721.307 79.8286 720.497 80.3062C720.024 80.5854 719.491 80.7271 718.955 80.7271C718.574 80.7271 718.191 80.6552 717.828 80.51C710.021 77.3857 701.466 68.9189 694.944 57.8613C688.422 46.8038 685.151 35.2205 686.193 26.8763C686.311 25.9431 686.854 25.117 687.664 24.6393ZM717.052 40.1431C724.355 40.1427 731.666 37.4861 737.637 32.6632C740.291 30.5189 742.568 28.0228 744.417 25.3016C742.782 25.0554 741.115 24.9271 739.432 24.9271C738.133 24.9271 736.814 25.0017 735.511 25.149C725.485 26.2812 716.586 31.7603 711.702 39.6529C713.442 39.9779 715.23 40.1431 717.049 40.1431H717.052ZM749.922 7.17031C747.695 6.6194 745.375 6.3407 743.002 6.3407C735.699 6.3407 728.388 8.99683 722.417 13.8206C716.95 18.2369 713.076 24.1387 711.268 30.4509C717.31 24.2822 725.685 20.1515 734.831 19.1186C736.359 18.9461 737.907 18.8585 739.433 18.8585C742.165 18.8585 744.865 19.1459 747.485 19.6924C749.191 15.6844 750.05 11.4098 749.922 7.17031ZM734.308 49.4387C735.607 49.4387 736.927 49.3641 738.229 49.2172C748.424 48.066 757.457 42.4221 762.284 34.3137C759.121 31.0018 755.095 28.4545 750.615 26.8546C748.25 30.7938 745.162 34.3852 741.45 37.3838C735.146 42.4754 727.548 45.5134 719.797 46.0994C724.185 48.2523 729.171 49.4387 734.308 49.4387ZM700.172 54.7787C704.773 62.5806 710.551 69.0541 716 72.6807C715.462 66.1578 712.592 57.9692 707.99 50.1673C703.389 42.3658 697.612 35.8919 692.162 32.2653C692.7 38.7886 695.57 46.9772 700.172 54.7787Z" fill="#61CD90"/>
<path d="M600.943 251.892C603.735 251.892 606 249.628 606 246.835C606 244.042 603.735 241.778 600.943 241.778C598.15 241.778 595.886 244.042 595.886 246.835C595.886 249.628 598.15 251.892 600.943 251.892Z" fill="#61CD90"/>
<path d="M600.336 254.639C599.526 254.161 598.54 254.087 597.667 254.436C593.098 256.264 588.273 259.925 583.749 264.862C582.707 255.129 577.551 245.687 569.397 239.1C562.349 233.408 553.684 230.273 544.998 230.273C541.285 230.273 537.67 230.84 534.251 231.96C533.115 232.332 532.303 233.337 532.178 234.527C531.581 240.209 532.485 246.004 534.662 251.4C528.777 253.631 523.563 257.254 519.689 261.973C518.93 262.897 518.785 264.181 519.319 265.251C524.74 276.123 536.147 283.785 549.091 285.247C550.618 285.419 552.166 285.507 553.692 285.507H553.694C560.553 285.507 567.211 283.711 572.894 280.477C567.641 290.469 565.096 300.576 566.034 308.069C566.151 309.002 566.693 309.829 567.503 310.306C567.976 310.585 568.509 310.727 569.045 310.727C569.426 310.727 569.809 310.655 570.172 310.51C577.979 307.386 586.534 298.919 593.056 287.861C599.578 276.804 602.849 265.221 601.806 256.876C601.688 255.943 601.146 255.117 600.336 254.639ZM570.948 270.143C563.644 270.143 556.334 267.486 550.363 262.663C547.709 260.519 545.432 258.023 543.583 255.302C545.218 255.055 546.885 254.927 548.568 254.927C549.867 254.927 551.186 255.002 552.489 255.149C562.515 256.281 571.414 261.76 576.297 269.653C574.558 269.978 572.77 270.143 570.951 270.143H570.948ZM538.077 237.17C540.305 236.619 542.625 236.341 544.998 236.341C552.301 236.341 559.612 238.997 565.583 243.821C571.05 248.237 574.924 254.139 576.732 260.451C570.69 254.282 562.315 250.151 553.169 249.119C551.641 248.946 550.092 248.859 548.567 248.859C545.835 248.859 543.135 249.146 540.515 249.692C538.809 245.684 537.95 241.41 538.077 237.17ZM553.692 279.439C552.393 279.439 551.073 279.364 549.771 279.217C539.576 278.066 530.543 272.422 525.716 264.314C528.879 261.002 532.905 258.454 537.385 256.855C539.75 260.794 542.837 264.385 546.55 267.384C552.853 272.475 560.452 275.513 568.203 276.099C563.815 278.252 558.829 279.439 553.692 279.439ZM587.828 284.779C583.226 292.581 577.449 299.054 572 302.681C572.538 296.158 575.408 287.969 580.009 280.167C584.611 272.366 590.388 265.892 595.837 262.265C595.3 268.789 592.43 276.977 587.828 284.779Z" fill="#61CD90"/>
<path d="M120.559 535.623C124.668 535.623 127.999 532.292 127.999 528.183C127.999 524.074 124.668 520.743 120.559 520.743C116.45 520.743 113.119 524.074 113.119 528.183C113.119 532.292 116.45 535.623 120.559 535.623Z" fill="#61CD90"/>
<path d="M119.667 539.665C118.475 538.961 117.025 538.852 115.741 539.365C109.018 542.055 101.919 547.442 95.2632 554.705C93.7296 540.385 86.1447 526.494 74.1468 516.803C63.7777 508.428 51.0293 503.815 38.2496 503.815C32.7877 503.815 27.4679 504.65 22.4383 506.297C20.7662 506.844 19.5718 508.324 19.3882 510.074C18.5107 518.434 19.8397 526.96 23.0435 534.899C14.3841 538.181 6.71309 543.511 1.0139 550.454C-0.10273 551.814 -0.316362 553.703 0.469294 555.278C8.44446 571.273 25.2276 582.546 44.2715 584.696C46.5182 584.95 48.7967 585.079 51.0414 585.079H51.0446C61.1357 585.079 70.9309 582.437 79.2925 577.678C71.5641 592.38 67.8201 607.25 69.1989 618.274C69.371 619.647 70.1688 620.863 71.3613 621.565C72.0571 621.976 72.8408 622.185 73.629 622.185C74.1902 622.185 74.7533 622.079 75.2877 621.865C86.7734 617.269 99.3599 604.812 108.956 588.543C118.552 572.275 123.364 555.232 121.83 542.956C121.657 541.583 120.858 540.367 119.667 539.665ZM76.4292 562.475C65.6838 562.474 54.9282 558.566 46.1432 551.47C42.2379 548.315 38.888 544.643 36.1675 540.639C38.5736 540.277 41.0256 540.088 43.5018 540.088C45.413 540.088 47.3542 540.198 49.2711 540.415C64.0219 542.08 77.1147 550.142 84.2998 561.754C81.74 562.232 79.1101 562.475 76.433 562.475H76.4292ZM28.068 513.963C31.3458 513.153 34.7582 512.743 38.2496 512.743C48.995 512.743 59.7506 516.651 68.5363 523.748C76.5797 530.245 82.2795 538.928 84.9388 548.215C76.0497 539.139 63.7273 533.062 50.2717 531.542C48.0238 531.288 45.7452 531.16 43.5012 531.16C39.481 531.16 35.5094 531.582 31.6545 532.387C29.1444 526.49 27.8799 520.201 28.068 513.963ZM51.0414 576.151C49.1296 576.151 47.1884 576.041 45.2721 575.825C30.2726 574.132 16.9834 565.828 9.88122 553.898C14.5339 549.026 20.4576 545.278 27.0489 542.924C30.5283 548.719 35.0713 554.004 40.5333 558.415C49.8074 565.906 60.9871 570.376 72.3899 571.238C65.9351 574.406 58.5989 576.151 51.0414 576.151ZM101.265 584.008C94.4942 595.486 85.9942 605.011 77.9769 610.346C78.7683 600.749 82.9912 588.702 89.7611 577.223C96.531 565.745 105.031 556.22 113.048 550.885C112.257 560.482 108.035 572.53 101.265 584.008Z" fill="#61CD90"/>
</svg>
