<svg width="1920" height="304" viewBox="0 0 1920 304" fill="none" xmlns="http://www.w3.org/2000/svg">
<path d="M1928 103.805C1698.4 -84.1955 537 25.4712 -15 103.805C-64.8333 181.036 -103.2 210.8 76 270C255.2 329.2 1396.67 302.565 1951.5 244.5L1928 103.805Z" fill="#FFDBE2"/>
<path d="M144.815 56.6004C147.126 56.6004 149 54.7267 149 52.4153C149 50.104 147.126 48.2302 144.815 48.2302C142.503 48.2302 140.629 50.104 140.629 52.4153C140.629 54.7267 142.503 56.6004 144.815 56.6004Z" fill="#FFB8C6"/>
<path d="M144.313 58.8739C143.642 58.4782 142.827 58.4165 142.104 58.7053C138.323 60.2187 134.329 63.2484 130.586 67.3341C129.723 59.2789 125.456 51.4654 118.708 46.0141C112.875 41.3032 105.704 38.7086 98.5154 38.7086C95.4431 38.7086 92.4507 39.1782 89.6216 40.1047C88.681 40.4125 88.0092 41.2447 87.9059 42.229C87.4123 46.9317 88.1598 51.7273 89.962 56.1932C85.0911 58.0392 80.7761 61.0376 77.5704 64.9429C76.9422 65.708 76.8221 66.7705 77.264 67.6562C81.75 76.6537 91.1906 82.9947 101.903 84.2042C103.166 84.347 104.448 84.4194 105.711 84.4194H105.713C111.389 84.4194 116.899 82.9333 121.602 80.2566C117.255 88.5263 115.149 96.8904 115.924 103.092C116.021 103.864 116.47 104.548 117.141 104.943C117.532 105.174 117.973 105.291 118.416 105.291C118.732 105.291 119.049 105.232 119.349 105.112C125.81 102.526 132.89 95.519 138.288 86.368C143.685 77.2169 146.392 67.6307 145.529 60.7252C145.432 59.9529 144.983 59.2692 144.313 58.8739ZM119.991 71.7046C113.947 71.7042 107.897 69.5057 102.956 65.5143C100.759 63.7398 98.8745 61.674 97.3443 59.422C98.6977 59.2183 100.077 59.1121 101.47 59.1121C102.545 59.1121 103.637 59.1738 104.715 59.2957C113.012 60.2327 120.377 64.7671 124.419 71.2989C122.979 71.5679 121.499 71.7046 119.994 71.7046H119.991ZM92.7883 44.4168C94.632 43.9609 96.5515 43.7302 98.5154 43.7302C104.56 43.7302 110.61 45.9284 115.552 49.9205C120.076 53.5754 123.282 58.4596 124.778 63.6835C119.778 58.5783 112.847 55.1598 105.278 54.305C104.013 54.1622 102.732 54.0898 101.469 54.0898C99.2081 54.0898 96.9741 54.3276 94.8057 54.7799C93.3938 51.4629 92.6825 47.9253 92.7883 44.4168ZM105.711 79.3975C104.635 79.3975 103.543 79.3358 102.466 79.2142C94.0283 78.2615 86.5532 73.5907 82.5582 66.8803C85.1754 64.1394 88.5074 62.0313 92.2151 60.7073C94.1722 63.9672 96.7276 66.9395 99.8 69.4211C105.017 73.6348 111.305 76.149 117.719 76.634C114.089 78.4157 109.962 79.3975 105.711 79.3975ZM133.961 83.8168C130.153 90.2736 125.372 95.6309 120.862 98.6323C121.307 93.234 123.683 86.4573 127.491 80.0005C131.299 73.5441 136.08 68.1864 140.59 65.185C140.145 70.5836 137.769 77.3604 133.961 83.8168Z" fill="#FFB8C6"/>
<path d="M210.057 76.8921C207.264 76.8921 205 74.6281 205 71.8352C205 69.0423 207.264 66.7782 210.057 66.7782C212.85 66.7782 215.114 69.0423 215.114 71.8352C215.114 74.6281 212.85 76.8921 210.057 76.8921Z" fill="#FFB8C6"/>
<path d="M210.664 79.6393C211.474 79.1612 212.46 79.0866 213.332 79.4356C217.902 81.2643 222.727 84.9251 227.251 89.862C228.293 80.1286 233.449 70.6874 241.603 64.1004C248.651 58.408 257.316 55.2729 266.002 55.2729C269.715 55.2729 273.33 55.8403 276.749 56.9599C277.885 57.3318 278.697 58.3374 278.822 59.5267C279.418 65.2091 278.515 71.0038 276.338 76.4002C282.223 78.6307 287.437 82.2538 291.311 86.9727C292.07 87.8972 292.215 89.1811 291.681 90.2512C286.26 101.123 274.853 108.785 261.909 110.247C260.382 110.419 258.833 110.507 257.308 110.507H257.306C250.447 110.507 243.789 108.711 238.106 105.477C243.359 115.469 245.903 125.576 244.966 133.069C244.849 134.002 244.307 134.829 243.497 135.306C243.024 135.585 242.491 135.727 241.955 135.727C241.574 135.727 241.191 135.655 240.828 135.51C233.021 132.386 224.466 123.919 217.944 112.861C211.422 101.804 208.151 90.2205 209.194 81.8763C209.311 80.9431 209.854 80.1169 210.664 79.6393ZM240.052 95.1431C247.356 95.1426 254.666 92.4861 260.637 87.6632C263.291 85.5189 265.568 83.0227 267.417 80.3016C265.782 80.0554 264.115 79.9271 262.432 79.9271C261.133 79.9271 259.814 80.0016 258.511 80.149C248.485 81.2812 239.586 86.7603 234.702 94.6528C236.442 94.9779 238.23 95.1431 240.049 95.1431H240.052ZM272.922 62.1703C270.695 61.6194 268.375 61.3407 266.002 61.3407C258.699 61.3407 251.388 63.9968 245.417 68.8206C239.95 73.2369 236.076 79.1387 234.268 85.4509C240.31 79.2821 248.685 75.1514 257.831 74.1185C259.359 73.946 260.907 73.8585 262.433 73.8585C265.165 73.8585 267.865 74.1458 270.485 74.6924C272.191 70.6844 273.05 66.4098 272.922 62.1703ZM257.308 104.439C258.607 104.439 259.927 104.364 261.229 104.217C271.424 103.066 280.457 97.4221 285.284 89.3137C282.121 86.0018 278.095 83.4544 273.615 81.8546C271.25 85.7937 268.162 89.3852 264.45 92.3838C258.146 97.4754 250.548 100.513 242.797 101.099C247.185 103.252 252.171 104.439 257.308 104.439ZM223.172 109.779C227.773 117.581 233.551 124.054 239 127.681C238.462 121.158 235.592 112.969 230.99 105.167C226.389 97.3657 220.612 90.8919 215.162 87.2653C215.7 93.7886 218.57 101.977 223.172 109.779Z" fill="#FFB8C6"/>
<path d="M953.722 64.9006C957.189 64.9006 959.999 62.09 959.999 58.623C959.999 55.1559 957.189 52.3454 953.722 52.3454C950.255 52.3454 947.444 55.1559 947.444 58.623C947.444 62.09 950.255 64.9006 953.722 64.9006Z" fill="#FFB8C6"/>
<path d="M952.969 68.3108C951.963 67.7173 950.74 67.6248 949.656 68.0579C943.984 70.328 937.994 74.8725 932.378 81.0011C931.084 68.9183 924.685 57.1982 914.561 49.0212C905.812 41.9548 895.056 38.0629 884.273 38.0629C879.665 38.0629 875.176 38.7673 870.932 40.1571C869.522 40.6187 868.514 41.8671 868.359 43.3435C867.618 50.3975 868.74 57.591 871.443 64.2899C864.137 67.0588 857.664 71.5564 852.856 77.4144C851.913 78.5621 851.733 80.1558 852.396 81.4843C859.125 94.9806 873.286 104.492 889.354 106.306C891.25 106.52 893.172 106.629 895.066 106.629H895.069C903.583 106.629 911.848 104.4 918.903 100.385C912.382 112.789 909.223 125.336 910.387 134.638C910.532 135.796 911.205 136.822 912.211 137.415C912.798 137.761 913.46 137.937 914.125 137.937C914.598 137.937 915.073 137.848 915.524 137.667C925.215 133.789 935.835 123.279 943.932 109.552C952.028 95.8254 956.088 81.4461 954.794 71.0878C954.648 69.9293 953.974 68.9038 952.969 68.3108ZM916.487 87.5569C907.421 87.5564 898.346 84.2586 890.933 78.2715C887.638 75.6097 884.812 72.511 882.516 69.133C884.547 68.8274 886.615 68.6681 888.705 68.6681C890.317 68.6681 891.955 68.7607 893.573 68.9436C906.019 70.349 917.066 77.1507 923.128 86.9483C920.968 87.3519 918.749 87.5569 916.49 87.5569H916.487ZM875.682 46.6252C878.448 45.9413 881.327 45.5953 884.273 45.5953C893.34 45.5953 902.415 48.8926 909.828 54.8807C916.614 60.3631 921.423 67.6894 923.667 75.5252C916.167 67.8675 905.77 62.7397 894.417 61.4575C892.52 61.2433 890.598 61.1347 888.704 61.1347C885.312 61.1347 881.961 61.4914 878.708 62.1699C876.591 57.1944 875.524 51.888 875.682 46.6252ZM895.066 99.0963C893.453 99.0963 891.815 99.0037 890.198 98.8213C877.542 97.3922 866.33 90.3861 860.337 80.3205C864.263 76.2091 869.261 73.0469 874.823 71.0609C877.758 75.9508 881.591 80.4092 886.2 84.1316C894.025 90.4522 903.458 94.2235 913.079 94.951C907.633 97.6236 901.443 99.0963 895.066 99.0963ZM937.442 105.725C931.729 115.41 924.558 123.446 917.793 127.948C918.461 119.851 922.024 109.686 927.736 100.001C933.448 90.3161 940.62 82.2796 947.384 77.7776C946.717 85.8754 943.154 96.0406 937.442 105.725Z" fill="#FFB8C6"/>
</svg>
