<svg width="560" height="620" viewBox="0 0 560 620" fill="none" xmlns="http://www.w3.org/2000/svg">
<path d="M1.00005 19.9995C1.00005 8.95383 9.95436 -0.000488281 21 -0.000488281H540C551.046 -0.000488281 560 8.95382 560 19.9995V600C560 611.045 551.046 620 540 620H21C9.95435 620 1.00005 611.045 1.00005 600V19.9995Z" fill="white"/>
<path d="M115 232.999C29.9176 261.023 4.1591 345.639 0.50005 402.717V430.999C-0.0976747 422.865 -0.175899 413.261 0.50005 402.717V-8.7738e-05H241.5C239.201 68.5501 211.883 201.09 115 232.999Z" fill="#C0FFCE"/>
<path d="M444.539 386C529.621 357.977 555.379 273.361 559.039 216.283V188C559.636 196.134 559.714 205.739 559.039 216.283V618.999H318.039C320.338 550.449 347.656 417.91 444.539 386Z" fill="#F78F8F"/>
</svg>
