<svg width="810" height="517" viewBox="0 0 810 517" fill="none" xmlns="http://www.w3.org/2000/svg">
<path d="M245.455 294.292C245.455 360.184 190.508 413.6 122.727 413.6C54.9469 413.6 0 360.184 0 294.292C0 228.4 54.9469 174.985 122.727 174.985C190.508 174.985 245.455 228.4 245.455 294.292Z" fill="#EB536B"/>
<path d="M390 387.087C390 452.979 335.053 506.395 267.273 506.395C199.492 506.395 144.545 452.979 144.545 387.087C144.545 321.195 199.492 267.779 267.273 267.779C335.053 267.779 390 321.195 390 387.087Z" fill="#EB536B"/>
<path d="M579.545 397.692C579.545 463.584 524.599 517 456.818 517C389.038 517 334.091 463.584 334.091 397.692C334.091 331.801 389.038 278.385 456.818 278.385C524.599 278.385 579.545 331.801 579.545 397.692Z" fill="#EB536B"/>
<path d="M745.909 357.923C745.909 423.815 690.962 477.231 623.182 477.231C555.401 477.231 500.455 423.815 500.455 357.923C500.455 292.031 555.401 238.615 623.182 238.615C690.962 238.615 745.909 292.031 745.909 357.923Z" fill="#EB536B"/>
<path d="M810 238.615C810 304.507 755.053 357.923 687.273 357.923C619.492 357.923 564.545 304.507 564.545 238.615C564.545 172.724 619.492 119.308 687.273 119.308C755.053 119.308 810 172.724 810 238.615Z" fill="#EB536B"/>
<path d="M702.273 144.495C702.273 210.387 647.326 263.803 579.545 263.803C511.765 263.803 456.818 210.387 456.818 144.495C456.818 78.6031 511.765 25.1872 579.545 25.1872C647.326 25.1872 702.273 78.6031 702.273 144.495Z" fill="#EB536B"/>
<path d="M557.727 119.308C557.727 185.2 502.78 238.615 435 238.615C367.22 238.615 312.273 185.2 312.273 119.308C312.273 53.4159 367.22 0 435 0C502.78 0 557.727 53.4159 557.727 119.308Z" fill="#EB536B"/>
<path d="M418.636 119.308C418.636 185.2 363.689 238.615 295.909 238.615C228.129 238.615 173.182 185.2 173.182 119.308C173.182 53.4159 228.129 0 295.909 0C363.689 0 418.636 53.4159 418.636 119.308Z" fill="#EB536B"/>
<path d="M274.091 167.031C274.091 232.923 219.144 286.338 151.364 286.338C83.5832 286.338 28.6364 232.923 28.6364 167.031C28.6364 101.139 83.5832 47.7231 151.364 47.7231C219.144 47.7231 274.091 101.139 274.091 167.031Z" fill="#EB536B"/>
<path d="M141.818 141.844H605.455V335.387H141.818V141.844Z" fill="#EB536B"/>
</svg>
