<svg width="463" height="203" viewBox="0 0 463 203" fill="none" xmlns="http://www.w3.org/2000/svg">
<path d="M469 11.7407C216.631 -28.5564 43.1797 44.4904 -12 86.0509V106C157.079 -4.91675 379.116 8.24962 469 28.6974V11.7407Z" fill="white"/>
<path d="M105.577 96.7196C55.7459 113.508 19.8904 133.487 0 149.051V169C34.8193 145.27 71.9718 127.22 109.713 113.705L105.577 96.7196Z" fill="white"/>
<path d="M177.108 94.2098C293.655 67.9033 405.966 78.2183 463 91.6974V74.7407C348.074 55.6764 250.15 61.9804 173.239 78.3173L177.108 94.2098Z" fill="white"/>
<path d="M463 140.402C236.865 94.4026 81.4437 177.786 32 225.228V248C183.503 121.387 382.46 136.417 463 159.758V140.402Z" fill="white"/>
<path d="M243 80.6126L256.754 78L267.951 136.946L254.197 139.559L243 80.6126Z" fill="white"/>
</svg>
