<svg width="463" height="267" viewBox="0 0 463 267" fill="none" xmlns="http://www.w3.org/2000/svg">
<path d="M86.8321 147.197C85.3477 147.878 83.5232 148.589 81.3585 149.331C79.2556 150.073 77.1528 150.723 75.0499 151.279L73.38 151.094C71.9574 150.29 70.8132 149.207 69.9473 147.847C69.1433 146.424 68.4939 145.033 67.9991 143.672C67.4425 142.064 67.0714 140.394 66.8858 138.662C70.4112 137.301 73.6583 136.003 76.627 134.766C79.5958 133.467 82.1625 132.292 84.3272 131.24C86.863 130.065 89.2133 128.921 91.378 127.808H106.778V255H86.8321V147.197Z" fill="white"/>
<path d="M152.446 134.707C153.233 133.496 154.21 132.232 155.378 130.915C156.392 129.801 157.646 128.521 159.138 127.074C160.688 125.651 162.542 124.224 164.701 122.792C165.986 124.821 167.548 126.834 169.385 128.83C170.954 130.509 172.86 132.266 175.104 134.099C177.371 135.875 179.955 137.383 182.856 138.622C187.861 140.761 192.304 141.853 196.186 141.898C200.149 141.91 203.6 141.232 206.538 139.865C209.501 138.441 211.976 136.505 213.963 134.059C215.951 131.612 217.552 128.967 218.767 126.124C221.927 118.73 222.286 112.46 219.844 107.314C217.459 102.192 212.542 98.039 205.092 94.855C202.817 93.8827 200.558 93.1866 198.316 92.7666C196.074 92.3466 194.048 92.0523 192.237 91.8836C190.093 91.7071 188.095 91.6604 186.243 91.7435C185.421 90.047 184.827 88.4478 184.46 86.9457C184.093 85.4437 183.848 84.1283 183.725 82.9996C183.537 81.7085 183.466 80.5351 183.514 79.4793C186.513 73.564 189.524 67.6203 192.547 61.6481C193.836 59.1049 195.185 56.4195 196.595 53.5918C198.062 50.7885 199.513 47.9447 200.948 45.0602C202.406 42.1188 203.841 39.2343 205.251 36.4067C206.686 33.5222 208.043 30.7394 209.323 28.0581L268.102 53.1777C267.932 53.5758 267.778 54.0145 267.64 54.4938C267.527 54.9162 267.361 55.3834 267.142 55.8952C266.98 56.4314 266.778 56.9838 266.535 57.5526C265.976 58.8606 265.023 60.5386 263.677 62.5865C262.331 64.6345 260.429 66.6464 257.97 68.6223C254.379 66.953 250.487 65.1216 246.294 63.1281C242.703 61.4588 238.572 59.5586 233.9 57.4275C229.228 55.2964 224.304 53.125 219.129 50.9132L203.434 81.7369C205.959 81.8074 208.392 82.1744 210.732 82.838C213.128 83.5258 215.35 84.3073 217.397 85.1823C222.8 87.4913 227.335 90.3372 231.001 93.7199C234.724 97.127 237.485 100.896 239.284 105.028C241.164 109.128 242.078 113.52 242.026 118.206C241.974 122.892 240.891 127.709 238.776 132.657C236.176 138.742 232.851 143.846 228.803 147.968C224.836 152.057 220.291 155.058 215.168 156.972C210.046 158.885 204.439 159.65 198.348 159.267C192.257 158.883 185.855 157.257 179.144 154.389C175.049 152.639 171.369 150.629 168.102 148.358C164.867 146.169 162.079 144.036 159.738 141.959C157.048 139.599 154.617 137.181 152.446 134.707Z" fill="white"/>
<path d="M-5.33543 49.6814C-5.33786 47.709 -5.09289 45.8294 -4.60054 44.0426C-4.02092 42.2499 -3.42648 40.6753 -2.81723 39.3189C-2.0919 37.7354 -1.25007 36.2536 -0.291757 34.8735L87.6379 0.300873C89.4271 2.76562 91.0359 5.15494 92.4642 7.46886C93.6943 9.44555 94.7761 11.4981 95.7097 13.6264C96.6898 15.7954 97.1663 17.6479 97.1391 19.184L96.2939 20.2934C89.3904 22.5594 82.17 25.0003 74.6328 27.6162C71.4225 28.7547 67.9534 29.9546 64.2254 31.2159C60.544 32.5179 56.7114 33.8521 52.7276 35.2185C48.7438 36.5849 44.6553 38.0241 40.4622 39.5362C36.3098 41.0017 32.1603 42.5108 28.0138 44.0636L13.2855 46.9705L42.5712 72.5319L59.1648 53.5207C61.8531 53.7326 64.3905 54.3055 66.7772 55.2393C69.2511 56.1672 71.4428 57.1362 73.3525 58.1462C75.5417 59.4002 77.5623 60.7534 79.4143 62.2057L58.3673 86.3192L69.8998 96.3852C69.6617 96.752 69.4033 97.1422 69.1245 97.5556C68.8864 97.9224 68.6047 98.2922 68.2793 98.665C68.0412 99.0318 67.7798 99.3784 67.4951 99.7045C66.6004 100.73 65.4642 101.749 64.0865 102.763C62.7961 103.771 61.0198 104.725 58.7576 105.624L48.9724 97.0829L26.6443 122.664L10.8482 108.877L33.1763 83.2956L-5.33543 49.6814Z" fill="white"/>
<path d="M249.359 247.13C249.359 235.255 250.442 224.864 252.607 215.958C254.833 207.052 258.018 199.63 262.162 193.692C266.368 187.755 271.47 183.333 277.47 180.426C283.531 177.457 290.396 175.973 298.066 175.973C302.828 175.973 306.972 176.282 310.497 176.9C314.084 177.519 317.115 178.199 319.589 178.941C322.434 179.807 324.908 180.766 327.011 181.817C326.949 183.116 326.671 184.57 326.176 186.178C325.743 187.6 325.063 189.301 324.135 191.28C323.207 193.198 321.846 195.331 320.053 197.682C318.383 196.754 316.466 195.95 314.301 195.27C312.445 194.651 310.157 194.094 307.436 193.6C304.714 193.043 301.591 192.765 298.066 192.765C293.056 192.765 288.819 193.816 285.356 195.919C281.892 197.96 279.047 200.712 276.82 204.176C274.594 207.577 272.924 211.474 271.811 215.865C270.759 220.195 270.11 224.679 269.862 229.317C270.79 228.637 272.151 227.895 273.944 227.091C275.738 226.225 277.841 225.421 280.253 224.679C282.727 223.937 285.417 223.318 288.324 222.823C291.293 222.328 294.355 222.081 297.509 222.081C302.704 222.081 307.528 222.885 311.982 224.493C316.435 226.039 320.269 228.482 323.485 231.822C326.702 235.162 329.206 239.43 331 244.625C332.856 249.758 333.783 255.943 333.783 263.18C333.783 269.674 332.763 275.519 330.722 280.714C328.681 285.847 325.805 290.208 322.094 293.795C318.383 297.382 313.93 300.134 308.734 302.052C303.539 303.969 297.787 304.928 291.479 304.928C283.129 304.928 276.233 303.412 270.79 300.382C265.409 297.351 261.111 293.238 257.895 288.043C254.74 282.786 252.514 276.663 251.215 269.674C249.978 262.623 249.359 255.108 249.359 247.13ZM269.862 244.811C269.677 247.161 269.615 249.882 269.677 252.975C269.739 256.005 270.017 259.16 270.512 262.438C271.007 265.715 271.749 268.932 272.738 272.086C273.728 275.24 275.027 278.054 276.635 280.528C278.305 283.002 280.315 285.012 282.665 286.559C285.077 288.043 287.891 288.785 291.108 288.785C295.004 288.785 298.313 288.105 301.034 286.744C303.817 285.322 306.075 283.404 307.807 280.992C309.6 278.58 310.899 275.766 311.703 272.55C312.507 269.334 312.909 265.901 312.909 262.252C312.909 254.026 310.961 247.81 307.065 243.604C303.23 239.337 298.066 237.203 291.571 237.203C289.53 237.203 287.458 237.389 285.356 237.76C283.253 238.131 281.243 238.657 279.325 239.337C277.47 239.955 275.707 240.729 274.037 241.656C272.429 242.584 271.038 243.635 269.862 244.811Z" fill="white"/>
<path d="M347.828 120.561C346.312 117.309 345.381 113.922 345.035 110.398C344.662 106.819 344.813 103.336 345.487 99.9515C346.19 96.4843 347.4 93.2247 349.116 90.1726C350.806 87.0645 352.927 84.3694 355.48 82.0873C349.244 82.47 343.578 81.222 338.483 78.3432C333.387 75.4644 329.363 70.8579 326.409 64.5236C324.292 59.9831 323.158 55.428 323.006 50.8583C322.911 46.2625 323.777 41.9005 325.606 37.7723C327.408 33.5882 330.171 29.7069 333.893 26.1287C337.616 22.5505 342.252 19.4676 347.802 16.8802C353.071 14.4234 358.216 12.9455 363.238 12.4466C368.316 11.9215 373.037 12.3135 377.401 13.6228C381.794 14.8498 385.749 16.9641 389.264 19.9657C392.779 22.9672 395.595 26.7383 397.712 31.2787C399.097 34.2497 399.983 37.2485 400.371 40.2751C400.814 43.2756 400.802 46.2498 400.334 49.1977C399.84 52.0895 398.892 54.8859 397.49 57.5869C396.118 60.2057 394.308 62.6188 392.062 64.8262C395.507 64.3118 398.937 64.3503 402.352 64.9418C405.797 65.4512 409.047 66.4947 412.103 68.0726C415.159 69.6504 417.951 71.7606 420.48 74.4031C423.065 77.0195 425.193 80.1214 426.866 83.709C429.218 88.754 430.326 93.7649 430.19 98.7418C430.028 103.663 428.834 108.348 426.609 112.797C424.385 117.246 421.215 121.352 417.1 125.113C413.041 128.848 408.237 132.009 402.687 134.597C396.857 137.315 391.151 139.054 385.569 139.814C380.016 140.492 374.821 140.253 369.982 139.097C365.174 137.859 360.861 135.707 357.043 132.642C353.2 129.521 350.128 125.493 347.828 120.561ZM367.341 111.258C368.752 114.285 370.58 116.742 372.825 118.63C375.07 120.518 377.523 121.899 380.183 122.774C382.843 123.649 385.6 124.002 388.455 123.831C391.283 123.604 394.015 122.876 396.65 121.648C399.06 120.524 401.233 118.965 403.169 116.97C405.135 114.893 406.638 112.555 407.678 109.955C408.718 107.354 409.236 104.588 409.233 101.655C409.287 98.6954 408.608 95.7023 407.196 92.6753C406.046 90.2089 404.463 87.9104 402.446 85.78C400.459 83.5673 398.141 81.816 395.492 80.526C392.9 79.2099 390.07 78.4822 387.002 78.3429C383.908 78.1476 380.708 78.8209 377.401 80.3629C373.757 82.0618 370.933 84.1289 368.93 86.5644C366.982 88.9737 365.666 91.5664 364.981 94.3423C364.353 97.0921 364.275 99.9262 364.749 102.844C365.222 105.763 366.086 108.567 367.341 111.258ZM371.246 67.1619C373.376 66.1687 375.267 64.8093 376.919 63.0836C378.571 61.358 379.788 59.3575 380.569 57.0823C381.407 54.7809 381.739 52.272 381.564 49.5556C381.419 46.757 380.641 43.8441 379.23 40.8172C377.819 37.7902 376.088 35.3217 374.037 33.4116C372.042 31.4755 369.894 30.0885 367.593 29.2508C365.348 28.3869 363.033 28.033 360.649 28.1891C358.239 28.2892 355.969 28.8358 353.839 29.829C351.317 31.0051 349.227 32.5251 347.571 34.389C345.889 36.1969 344.671 38.2665 343.915 40.5977C343.189 42.8468 342.955 45.3445 343.212 48.0909C343.499 50.7551 344.322 53.5446 345.681 56.4595C347.04 59.3744 348.648 61.798 350.504 63.7304C352.416 65.6366 354.48 67.0628 356.696 68.0088C358.885 68.8988 361.212 69.2808 363.679 69.1546C366.201 69.0022 368.723 68.338 371.246 67.1619Z" fill="white"/>
<path d="M417.404 298.715C417.027 297.321 416.738 295.75 416.537 294.001C416.384 292.503 416.28 290.743 416.225 288.721C416.199 286.618 416.374 284.285 416.748 281.721C419.79 281.805 422.891 281.724 426.052 281.478C428.798 281.221 431.814 280.736 435.098 280.024C438.383 279.311 441.623 278.21 444.818 276.72C448.181 275.152 451.031 273.141 453.367 270.687C455.703 268.233 457.438 265.514 458.571 262.529C459.76 259.517 460.29 256.336 460.16 252.984C460.005 249.577 459.117 246.135 457.496 242.66C456.555 240.642 455.194 238.82 453.412 237.194C451.604 235.512 449.453 234.263 446.957 233.448C444.435 232.576 441.566 232.276 438.348 232.548C435.161 232.738 431.69 233.708 427.934 235.459L418.349 239.928C417.307 238.571 416.373 237.301 415.548 236.116C414.752 234.849 414.106 233.683 413.61 232.618C412.904 231.105 412.361 229.72 411.98 228.464C411.805 227.796 411.616 227.099 411.415 226.374L421.505 221.669C423.691 220.65 425.556 219.235 427.099 217.423C428.643 215.611 429.765 213.553 430.464 211.248C431.194 208.86 431.443 206.322 431.212 203.631C430.956 200.885 430.161 198.082 428.828 195.223C427.652 192.701 426.158 190.668 424.346 189.124C422.59 187.554 420.586 186.476 418.333 185.888C416.137 185.275 413.788 185.141 411.288 185.488C408.763 185.778 406.182 186.538 403.548 187.766C400.577 189.151 397.916 190.836 395.565 192.819C393.244 194.72 391.299 196.548 389.729 198.304C387.845 200.411 386.196 202.51 384.783 204.602C382.605 203.297 380.732 201.987 379.163 200.671C377.594 199.355 376.285 198.157 375.235 197.077C374.051 195.855 373.062 194.61 372.266 193.343C374.356 190.8 376.735 188.291 379.404 185.819C381.676 183.667 384.408 181.404 387.6 179.029C390.792 176.653 394.405 174.525 398.441 172.643C409.877 167.311 419.844 165.564 428.344 167.402C436.9 169.213 443.425 174.94 447.921 184.581C449.489 187.944 450.491 191.265 450.927 194.542C451.363 197.819 451.304 200.985 450.75 204.041C450.17 207.042 449.11 209.89 447.569 212.587C446.029 215.285 444.08 217.763 441.721 220.023C445.45 219.239 449.151 218.981 452.824 219.248C456.471 219.458 459.867 220.229 463.013 221.56C466.188 222.809 469.031 224.589 471.541 226.899C474.107 229.182 476.174 232.006 477.743 235.369C480.382 241.031 481.726 246.546 481.772 251.916C481.819 257.285 480.711 262.374 478.449 267.182C476.187 271.99 472.8 276.435 468.289 280.517C463.808 284.517 458.316 288.033 451.813 291.065C447.609 293.025 443.431 294.53 439.28 295.578C435.21 296.657 431.537 297.414 428.26 297.85C424.426 298.409 420.808 298.697 417.404 298.715Z" fill="white"/>
</svg>
