<svg width="463" height="258" viewBox="0 0 463 258" fill="none" xmlns="http://www.w3.org/2000/svg">
<path d="M67.9347 12.4106L78.2195 0.154049L476.005 333.943L465.72 346.2L67.9347 12.4106Z" fill="white"/>
<path d="M-17 113.257L-6.71526 101L391.07 434.789L380.786 447.046L-17 113.257Z" fill="white"/>
<path d="M104.619 42.9941L97.7245 37.209L23.1602 126.069L30.0545 131.854L104.619 42.9941Z" fill="white"/>
<path d="M126.834 61.6352L119.94 55.85L45.3753 144.71L52.2696 150.496L126.834 61.6352Z" fill="white"/>
<path d="M149.049 80.2763L142.155 74.4911L67.5904 163.351L74.4847 169.137L149.049 80.2763Z" fill="white"/>
<path d="M171.264 98.9174L164.37 93.1322L89.8054 181.993L96.6998 187.778L171.264 98.9174Z" fill="white"/>
<path d="M193.479 117.558L186.585 111.773L112.021 200.634L118.915 206.419L193.479 117.558Z" fill="white"/>
<path d="M215.694 136.2L208.8 130.414L134.236 219.275L141.13 225.06L215.694 136.2Z" fill="white"/>
<path d="M237.909 154.841L231.015 149.055L156.451 237.916L163.345 243.701L237.909 154.841Z" fill="white"/>
<path d="M260.124 173.482L253.23 167.697L178.666 256.557L185.56 262.342L260.124 173.482Z" fill="white"/>
<path d="M282.34 192.123L275.445 186.338L200.881 275.198L207.775 280.983L282.34 192.123Z" fill="white"/>
<path d="M304.555 210.764L297.66 204.979L223.096 293.839L229.99 299.624L304.555 210.764Z" fill="white"/>
<path d="M326.77 229.405L319.875 223.62L245.311 312.48L252.205 318.265L326.77 229.405Z" fill="white"/>
<path d="M348.985 248.046L342.09 242.261L267.526 331.121L274.42 336.906L348.985 248.046Z" fill="white"/>
<path d="M371.2 266.687L364.306 260.902L289.741 349.762L296.636 355.547L371.2 266.687Z" fill="white"/>
<path d="M393.415 285.328L386.521 279.543L311.956 368.403L318.851 374.189L393.415 285.328Z" fill="white"/>
<path d="M415.63 303.969L408.736 298.184L334.171 387.044L341.066 392.83L415.63 303.969Z" fill="white"/>
</svg>
