<svg width="1776" height="1867" viewBox="0 0 1776 1867" fill="none" xmlns="http://www.w3.org/2000/svg">
<rect opacity="0.4" x="1638.89" y="470.247" width="297" height="297" rx="48.5" transform="rotate(-153.103 1638.89 470.247)" stroke="#998FC9" stroke-width="3"/>
<rect opacity="0.4" x="461.12" y="972.02" width="397" height="397" rx="48.5" transform="rotate(170.269 461.12 972.02)" stroke="#FEF97B" stroke-width="3"/>
<rect opacity="0.4" x="386.566" y="1756.67" width="497" height="497" rx="48.5" transform="rotate(-126.191 386.566 1756.67)" stroke="#FCA04C" stroke-width="3"/>
<rect opacity="0.4" x="1430.68" y="825.667" width="797" height="797" rx="48.5" transform="rotate(161.264 1430.68 825.667)" stroke="#79F4AF" stroke-width="3"/>
<rect opacity="0.4" x="1349.5" y="1845.7" width="597" height="597" rx="48.5" transform="rotate(-149.7 1349.5 1845.7)" stroke="#E9536C" stroke-width="3"/>
<rect x="740.403" y="626.434" width="100" height="100" rx="10" transform="rotate(104.143 740.403 626.434)" fill="#998FC9"/>
<rect x="1262.01" y="751" width="80" height="80" rx="10" transform="rotate(56.8897 1262.01 751)" fill="#EB536B"/>
<rect x="1574.53" y="1137.24" width="50" height="50" rx="10" transform="rotate(109.772 1574.53 1137.24)" fill="#998FC9"/>
<rect x="1611.65" y="1635.05" width="80" height="80" rx="10" transform="rotate(82.8033 1611.65 1635.05)" fill="#79F4AF"/>
<rect x="886.505" y="1151.9" width="100" height="100" rx="10" transform="rotate(95.1073 886.505 1151.9)" fill="#FEF97B"/>
<rect x="876.942" y="1705.64" width="140" height="140" rx="10" transform="rotate(140.897 876.942 1705.64)" fill="#FCA14B"/>
<rect x="536.757" y="197.906" width="60" height="60" rx="10" transform="rotate(-168.318 536.757 197.906)" fill="#EB536B"/>
<rect x="1133" y="363.483" width="90" height="90" rx="10" transform="rotate(-13.8096 1133 363.483)" fill="#79F4AF"/>
<rect x="1565.87" y="553" width="150" height="150" rx="10" transform="rotate(40.7301 1565.87 553)" fill="#FEF97B"/>
<rect x="27" y="401.809" width="150" height="150" rx="10" transform="rotate(-30.3575 27 401.809)" fill="#FCA14B"/>
<rect x="315.232" y="810" width="130" height="130" rx="10" transform="rotate(15.9548 315.232 810)" fill="#79F4AF"/>
</svg>
